HIERARCHY
ROOT hip
{
	OFFSET 0.000000 0.000000 0.000000 
	CHANNELS 6 Xposition Yposition Zposition Zrotation Xrotation Yrotation
	JOINT abdomen
	{
		OFFSET 0.000000 3.402643 0.000000 
		CHANNELS 3 Zrotation Xrotation Yrotation
		JOINT chest
		{
			OFFSET 0.000000 8.438565 -0.680529 
			CHANNELS 3 Zrotation Xrotation Yrotation
			JOINT neck
			{
				OFFSET 0.000000 10.207942 -0.272212 
				CHANNELS 3 Zrotation Xrotation Yrotation
				JOINT head
				{
					OFFSET 0.000000 3.130431 0.000000 
					CHANNELS 3 Zrotation Xrotation Yrotation
					End Site
					{
						OFFSET 0.000000 3.130435 0.000000 
					}
				}
			}
			JOINT lCollar
			{
				OFFSET 3.470700 6.669187 -0.816635 
				CHANNELS 3 Zrotation Xrotation Yrotation
				JOINT lShldr
				{
					OFFSET 3.198488 0.000000 0.000000 
					CHANNELS 3 Zrotation Xrotation Yrotation
					JOINT lForeArm
					{
						OFFSET 10.139888 0.000000 0.000000 
						CHANNELS 3 Zrotation Xrotation Yrotation
						JOINT lHand
						{
							OFFSET 8.370511 0.000000 0.000000 
							CHANNELS 3 Zrotation Xrotation Yrotation
							End Site
							{
								OFFSET 4.083176 0.000000 0.000000 
							}
						}
					}
				}
			}
			JOINT rCollar
			{
				OFFSET -3.470700 6.669187 -0.816635 
				CHANNELS 3 Zrotation Xrotation Yrotation
				JOINT rShldr
				{
					OFFSET -3.198488 0.000000 0.000000 
					CHANNELS 3 Zrotation Xrotation Yrotation
					JOINT rForeArm
					{
						OFFSET -10.139888 0.000000 0.000000 
						CHANNELS 3 Zrotation Xrotation Yrotation
						JOINT rHand
						{
							OFFSET -8.370511 0.000000 0.000000 
							CHANNELS 3 Zrotation Xrotation Yrotation
							End Site
							{
								OFFSET -4.083176 0.000000 0.000000 
							}
						}
					}
				}
			}
		}
	}
	JOINT lThigh
	{
		OFFSET 5.308129 -1.633274 1.361059 
		CHANNELS 3 Zrotation Xrotation Yrotation
		JOINT lShin
		{
			OFFSET -2.041588 -20.007561 0.000000 
			CHANNELS 3 Zrotation Xrotation Yrotation
			JOINT lFoot
			{
				OFFSET 0.000000 -19.190928 -1.224953 
				CHANNELS 3 Zrotation Xrotation Yrotation
				End Site
				{
					OFFSET 0.000000 -2.449906 4.627600 
				}
			}
		}
	}
	JOINT rThigh
	{
		OFFSET -5.308129 -1.633274 1.361059 
		CHANNELS 3 Zrotation Xrotation Yrotation
		JOINT rShin
		{
			OFFSET 2.041588 -20.007561 0.000000 
			CHANNELS 3 Zrotation Xrotation Yrotation
			JOINT rFoot
			{
				OFFSET 0.000000 -19.190928 -1.224953 
				CHANNELS 3 Zrotation Xrotation Yrotation
				End Site
				{
					OFFSET 0.000000 -2.449906 4.627600 
				}
			}
		}
	}
}
MOTION
Frames: 19
Frame Time: 0.033333
-2.268233 45.035919 -17.147823 1.523870 1.366704 45.783966 -0.000000 -0.000002 -0.000000 0.195812 4.091774 8.150087 6.609407 11.138296 -49.298752 -0.954937 -15.993991 -0.145955 -2.000757 -0.069240 1.990978 -71.040176 14.197979 -4.865769 5.946158 4.517196 -95.154907 -33.463997 56.985176 27.967928 1.990970 -0.069577 -2.000746 50.197308 -24.169914 -0.042817 -12.756939 7.535499 61.986164 125.546715 -22.357048 133.060211 9.490866 -24.311426 -2.290549 -13.939213 53.909676 8.152846 -3.798231 -29.013990 -10.899047 -28.857187 -25.622040 -9.794112 13.411682 35.873722 -1.910573 1.398706 -5.524933 -11.401157 
-1.740164 45.012432 -18.027771 1.562977 1.415490 46.631313 -0.000000 -0.000002 -0.000000 0.362352 4.306554 13.859508 6.992868 10.508951 -57.619473 -0.954937 -15.993991 -0.145955 -2.000757 -0.069240 1.990978 -74.790962 12.237258 -27.743168 5.855602 3.736204 -102.560158 -67.535477 58.409721 59.912907 1.990970 -0.069577 -2.000746 38.922085 -32.083305 -3.423769 -12.013851 8.730961 56.524841 121.197113 -1.897499 146.121490 7.933427 -25.162315 -2.165927 -14.255871 54.426083 8.422261 -1.887155 -28.822826 -11.337647 -24.279297 -31.194599 4.686940 20.054014 45.961323 -6.274365 1.333972 -17.723915 -6.841982 
-1.821047 45.239346 -17.698170 1.582534 1.444761 49.383789 -0.000000 -0.000002 -0.000000 0.234883 3.769501 12.767763 6.936155 11.063047 -61.942738 -0.954937 -15.993991 -0.145955 -2.000757 -0.069240 1.990978 -80.644585 6.126215 -49.760128 5.666285 2.989202 -109.770012 -94.902077 50.274708 83.975845 1.990970 -0.069577 -2.000746 34.638062 -34.702160 13.499455 -10.585676 10.492279 47.760948 115.840538 11.415392 159.208939 8.099996 -24.901827 -2.196594 -13.704357 53.410698 7.959928 -2.144364 -28.090538 -14.669289 -17.377731 -31.545710 13.166388 20.099157 45.697422 -6.367808 0.154527 -19.132666 -5.151230 
-1.901920 45.467331 -17.368681 1.572753 1.425244 53.759693 -0.000000 -0.000002 -0.000000 0.107594 3.242190 11.663850 6.869914 11.617509 -66.262878 -0.954937 -15.993991 -0.145955 -2.000757 -0.069240 1.990978 -87.287048 3.024057 -72.656013 5.409425 2.341828 -116.373734 -110.447899 38.446705 95.090477 1.990970 -0.069577 -2.000746 34.754150 -38.197979 38.940594 -8.706594 12.163165 37.907368 109.983315 19.116600 172.338852 8.367963 -25.033537 -2.188899 -13.224712 52.405582 7.568808 -2.396295 -26.934343 -19.573053 -10.775526 -31.127081 21.381802 20.189835 45.492439 -6.461298 -1.050308 -20.310019 -3.279849 
-1.982791 45.696030 -17.039080 1.514121 1.395996 60.871552 -0.000000 -0.000002 -0.000000 -0.048883 2.714846 10.568721 6.764357 12.182791 -70.574112 -0.954937 -15.993991 -0.145955 -2.000757 -0.069240 1.990978 -91.403984 2.962909 -89.332458 5.256667 2.024720 -119.691795 -114.547058 32.048321 94.614426 1.990970 -0.069577 -2.000746 36.660637 -42.913662 55.019131 -7.854201 12.747634 33.830769 105.749718 19.361017 -178.726807 3.754123 -23.716845 -1.976998 -13.727653 53.275616 8.007707 1.195143 -27.783028 -1.364585 -9.020343 -29.251797 20.936836 20.228142 45.370071 -6.497620 -2.645578 -21.461908 -3.920217 
-4.099132 46.626549 -13.256877 1.338250 1.327762 73.865471 -0.000000 -0.000002 -0.000000 -1.630859 -0.068328 -13.058588 3.722543 16.217518 -62.329449 -0.954937 -15.993991 -0.145955 -2.000757 -0.069240 1.990978 -87.716080 -18.216082 -90.498093 5.405317 2.317794 -116.576912 -101.793289 37.580265 77.809555 1.990970 -0.069577 -2.000746 50.434620 -33.379211 63.051819 -9.765349 11.296901 43.240234 105.584274 7.927263 -178.501282 5.760129 -25.325962 -1.931715 -14.418044 54.592262 8.564484 -2.484241 -18.222536 8.352496 -5.670126 -24.061382 12.377530 17.826258 41.515324 -4.897105 -9.583252 -19.176716 -13.842972 
-6.215460 47.555367 -9.474730 -0.000000 1.209347 90.000000 -0.000000 -0.000002 -0.000000 -4.182180 -1.977146 -36.766346 -0.680849 18.797598 -53.462360 -0.954937 -15.993991 -0.145955 -2.000757 -0.069240 1.990978 -77.976753 -37.994286 -78.343666 5.659116 3.002903 -109.760681 -74.312454 41.456814 47.343304 1.990970 -0.069577 -2.000746 56.873932 -22.963823 54.172970 -12.251010 8.374645 58.174572 108.454269 -10.131275 175.882980 14.111066 -14.574110 22.278906 -17.806250 60.083061 11.427587 0.837424 -12.703837 3.055727 -1.403171 -18.822794 3.775310 13.250975 32.963375 -2.141190 -14.312077 -13.405071 -25.918596 
-7.408324 48.264503 -5.030270 1.230714 1.132549 109.116280 -0.000000 -0.000002 -0.000000 -6.111710 -2.961617 -51.264240 -3.709859 19.532415 -42.918846 -0.954937 -15.993991 -0.145955 -2.000757 -0.069240 1.990978 -67.699066 -47.926308 -64.477600 5.812887 3.530805 -104.453667 -56.333214 37.709988 28.174433 1.990970 -0.069577 -2.000746 61.057995 -18.471657 55.559601 -13.010442 7.062905 64.048538 114.090630 -24.471180 168.732162 19.597044 -8.831790 41.824490 -28.058187 69.406219 20.814447 0.857533 -4.649538 4.733115 4.506154 -12.865376 -4.662663 7.414423 18.037231 0.423899 -17.142773 -4.148634 -36.358288 
-8.601198 48.964809 -0.585819 1.523877 1.366694 129.289825 -0.000000 -0.000002 -0.000000 -7.007986 -3.838380 -56.487099 -4.677408 19.656166 -42.115681 -0.954937 -15.993991 -0.145955 -2.000757 -0.069240 1.990978 -61.398476 -48.893421 -53.266830 5.889851 4.025050 -99.823898 -45.571362 33.074291 18.014631 1.990970 -0.069577 -2.000746 67.754570 -20.790901 68.318275 -12.755760 7.537700 61.976566 123.220337 -38.213116 159.008636 15.037910 -3.490513 51.272800 -24.384220 67.036339 17.344387 -10.515234 17.736738 22.272629 6.532617 -11.366643 -9.217211 4.835210 9.270260 1.043989 -16.407454 1.811408 -41.385384 
-6.510684 49.018036 2.695397 2.092381 2.820390 152.191895 -0.000000 -0.000002 -0.000000 -7.975441 -4.632690 -61.742073 -4.706585 21.613329 -16.183662 -0.954937 -15.993991 -0.145955 -2.000757 -0.069240 1.990978 -55.746666 -49.718624 -42.645149 5.939452 4.440981 -95.948433 -40.603249 30.891985 14.631912 1.990970 -0.069577 -2.000746 73.842072 -18.488592 77.766632 -12.573689 7.859244 60.554749 131.433151 -47.813557 153.212280 11.226403 0.979545 52.682167 -14.766806 56.190495 8.728110 3.820815 3.771457 31.510384 4.619492 -10.616995 -9.729289 6.010569 14.141404 0.875136 -14.799582 -3.879713 -45.661888 
-4.420172 49.052685 5.976616 2.203269 4.225393 175.755539 -0.000000 -0.000002 -0.000000 -6.639583 -6.121094 -46.190777 0.798453 23.464760 -12.456623 -0.954937 -15.993991 -0.145955 -2.000757 -0.069240 1.990978 -65.281334 -33.866562 -50.954060 5.947759 4.737161 -93.123856 -42.836887 33.978271 19.001410 1.990970 -0.069577 -2.000746 69.380524 -31.494175 68.900749 -13.097802 6.897470 64.767349 138.113190 -48.746803 156.203552 8.529213 3.566536 51.954842 -7.543111 38.589603 3.277230 9.541723 -7.854059 24.117504 3.746987 -9.014516 -10.000868 6.261829 15.884422 0.955704 -13.470343 -8.050917 -49.957920 
-0.679483 48.836662 5.445212 1.978604 4.440717 -163.209900 -0.000000 -0.000002 -0.000000 -4.961087 -7.199769 -30.554949 5.081775 24.076002 0.999319 -0.954937 -15.993991 -0.145955 -2.000757 -0.069240 1.990978 -70.757042 -17.657667 -55.903534 5.954045 4.949959 -91.121971 -50.458599 39.312519 29.402895 1.990970 -0.069577 -2.000746 60.942585 -40.941273 52.123104 -13.642241 5.650061 69.992622 142.810135 -43.800346 160.619537 6.816193 4.457477 50.570122 -4.442255 26.203445 1.633828 8.159707 -15.559698 21.225239 2.274490 -13.089046 -2.277580 8.796754 22.924623 0.033363 -13.168985 -8.732440 -48.883686 
3.061115 48.662437 4.913808 1.948620 4.206579 -142.525803 -0.000000 -0.000002 -0.000000 -2.788110 -7.588763 -12.888493 9.438578 23.008709 12.678704 -0.954937 -15.993991 -0.145955 -2.000757 -0.069240 1.990978 -74.282074 0.449316 -59.309605 5.941433 5.127427 -89.417953 -59.605789 43.183220 41.538288 1.990970 -0.069577 -2.000746 48.480038 -52.426102 30.039253 -13.371225 6.296971 67.301239 143.933563 -35.956669 157.659302 6.923220 3.502611 48.377277 -3.325762 21.004137 1.191499 2.831797 -19.684387 22.692089 -2.893802 -21.276222 12.882268 13.501398 33.531525 -2.250647 -6.385438 -5.015319 -37.735630 
6.801797 48.517502 4.382380 2.623865 4.087511 -118.175438 -0.000000 -0.000002 -0.000000 -0.393593 -7.040853 6.777925 13.107766 19.997261 22.996029 -0.954937 -15.993991 -0.145955 -2.000757 -0.069240 1.990978 -76.165749 20.070230 -62.043892 5.939898 5.242528 -88.334396 -71.200401 45.222919 56.678650 1.990970 -0.069577 -2.000746 23.322813 -63.091618 -6.332726 -13.071721 6.947978 64.587288 143.230820 -23.656406 148.620483 14.203017 -5.767322 44.763557 -4.918667 27.391024 1.904402 2.688159 -14.860533 25.756172 -5.499756 -23.277674 28.456697 17.263365 40.591480 -4.506518 1.603294 -5.795953 -23.008009 
5.556405 47.930168 2.429841 3.988459 4.773599 -87.080490 -0.000000 -0.000002 -0.000000 1.413460 -5.789267 23.502218 6.657388 13.427794 3.339985 -0.954937 -15.993991 -0.145955 -2.000757 -0.069240 1.990978 -75.187096 29.130924 -55.336025 5.936253 4.541029 -95.019508 -68.243118 39.589840 63.997627 1.990970 -0.069577 -2.000746 13.226192 -66.001244 -18.417570 -12.809610 7.444790 62.389610 147.825058 -21.579788 142.178574 16.357594 -12.893312 41.709415 -5.746589 29.842072 2.363819 2.798371 -11.339662 22.359985 -5.097448 -17.023020 26.787416 19.701616 44.660500 -6.126668 0.151898 -14.925917 -16.530432 
4.311047 47.266666 0.477332 5.170617 6.555461 -52.290230 -0.000000 -0.000002 -0.000000 2.545919 -4.204845 37.276638 -1.566324 11.802353 -13.947130 -0.954937 -15.993991 -0.145955 -2.000757 -0.069240 1.990978 -70.155655 29.599625 -43.467079 5.713363 3.186507 -107.913994 -55.491398 29.565020 68.281845 1.990970 -0.069577 -2.000746 24.610292 -65.626625 -1.585651 -12.835661 7.399275 62.591270 155.409210 -27.311512 137.255707 12.057675 -23.742546 28.524672 -5.478199 27.253738 2.369190 5.540310 -4.548880 5.349873 0.447476 -12.641125 23.892691 19.896496 44.962513 -6.259299 -4.183158 -19.677723 -15.114291 
3.065654 46.527962 -1.475216 5.169417 8.870577 -18.924257 -0.000000 -0.000002 -0.000000 3.274333 -2.388680 50.995983 -9.320730 14.685221 -31.320122 -0.954937 -15.993991 -0.145955 -2.000757 -0.069240 1.990978 -61.203472 29.853943 -33.172409 5.177937 1.890565 -121.103951 -40.695564 19.905861 72.177948 1.990970 -0.069577 -2.000746 33.618465 -61.056896 14.320871 -12.954536 7.165977 63.597801 162.928009 -35.595467 134.513550 0.770586 -29.258228 12.277864 -3.773221 16.571825 1.773822 8.430917 6.906719 -11.457227 3.361660 -10.153666 -3.121659 17.325567 40.624607 -4.581938 -12.427675 -23.848902 -26.266994 
1.880070 45.789536 -1.213636 3.834117 11.293672 10.469398 -0.000000 -0.000002 -0.000000 2.900390 -0.019509 57.950207 -11.669704 21.079639 -60.849247 -0.954937 -15.993991 -0.145955 -2.000757 -0.069240 1.990978 -52.935173 28.540161 -24.173243 4.772594 1.253836 -128.250305 -28.623459 14.067763 71.793663 1.990970 -0.069577 -2.000746 40.668274 -52.398117 25.013079 -13.132243 6.809088 65.130295 167.491486 -42.492626 135.207748 -10.710067 -27.132225 -5.090944 -2.436771 5.015966 1.462250 11.259806 16.762541 -25.059397 7.754165 -7.627056 -29.582956 12.751072 31.753992 -1.918820 -17.721035 -27.613939 -30.913824 
0.925437 45.391251 -1.053082 2.731013 13.432551 27.441299 -0.000000 -0.000002 -0.000000 1.769722 2.820925 58.203884 -11.847498 22.211391 -75.583084 -0.954937 -15.993991 -0.145955 -2.000757 -0.069240 1.990978 -48.580677 27.983603 -13.463913 4.862051 1.387955 -126.690186 -19.418121 10.734537 61.533863 1.990970 -0.069577 -2.000746 44.408096 -39.723202 28.906780 -13.365487 6.332327 67.168396 167.993851 -48.556332 140.821960 -16.401840 -26.971029 -23.443161 -1.979168 0.535915 1.352941 8.820873 23.337025 -23.828831 10.369673 -10.163274 -40.124264 10.784706 26.892090 -0.995976 -18.313150 -25.431826 -30.925461 
